<svg width="28" height="28" viewBox="0 0 28 28" fill="none" xmlns="http://www.w3.org/2000/svg">
<rect width="28" height="28" rx="5" fill="#141414"/>
<path d="M10.2382 14.9328C9.72164 14.3899 9.46337 13.7306 9.46337 12.9548V7.2676C9.46337 6.5309 9.72325 5.90436 10.243 5.38797C10.7629 4.87143 11.3976 4.61316 12.1471 4.61316C12.8968 4.61316 13.5315 4.87143 14.0513 5.38797C14.571 5.90436 14.8309 6.5309 14.8309 7.2676V12.9548C14.8309 13.7306 14.5727 14.3899 14.0563 14.9328C13.5398 15.4754 12.9034 15.7468 12.1471 15.7468C11.3909 15.7468 10.7546 15.4754 10.2382 14.9328ZM12.9836 22.8459H11.3107V19.6905C9.57895 19.5052 8.13291 18.7734 6.97256 17.4953C5.81206 16.2173 5.23181 14.7038 5.23181 12.9548H6.90473C6.90473 14.3969 7.4147 15.6132 8.43464 16.6036C9.45459 17.5941 10.6942 18.0893 12.1536 18.0893C12.2932 18.0893 12.4294 18.0811 12.5622 18.0648C12.6951 18.0484 12.8356 18.0283 12.9836 18.0045V22.8459ZM18.3321 24.0096L18.2047 22.8578C17.9011 22.7834 17.6128 22.6644 17.3398 22.5008C17.0668 22.337 16.8167 22.1491 16.5895 21.9372L15.5881 22.4084L14.6696 20.9637L15.5791 20.2503C15.4789 19.9621 15.4288 19.6644 15.4288 19.3575C15.4288 19.0507 15.4789 18.7532 15.5791 18.4649L14.6696 17.7385L15.5881 16.2837L16.5895 16.742C16.832 16.5454 17.0859 16.3696 17.3513 16.2145C17.6167 16.0594 17.9011 15.9403 18.2047 15.8572L18.3321 14.6825H19.9532L20.1038 15.8572C20.4074 15.9403 20.6919 16.0594 20.9572 16.2145C21.2226 16.3696 21.4765 16.5454 21.719 16.742L22.7202 16.2837L23.652 17.7385L22.7291 18.4649C22.8208 18.7532 22.8666 19.0507 22.8666 19.3575C22.8666 19.6644 22.8208 19.9621 22.7291 20.2503L23.652 20.9637L22.7202 22.4084L21.719 21.9372C21.4918 22.1491 21.2417 22.337 20.9687 22.5008C20.6957 22.6644 20.4074 22.7834 20.1038 22.8578L19.9532 24.0096H18.3321ZM20.7409 20.9443C21.1862 20.4989 21.4089 19.964 21.4089 19.3396C21.4089 18.7152 21.1862 18.1825 20.7409 17.7414C20.2955 17.3004 19.7628 17.0798 19.1427 17.0798C18.5227 17.0798 17.99 17.3004 17.5445 17.7414C17.0991 18.1825 16.8765 18.7152 16.8765 19.3396C16.8765 19.964 17.0991 20.4989 17.5445 20.9443C17.99 21.3896 18.5227 21.6123 19.1427 21.6123C19.7628 21.6123 20.2955 21.3896 20.7409 20.9443Z" fill="white"/>
</svg>
